# xmcd
#
# Track frame offsets:
#	183
#	10693
#	23778
#	34993
#	49768
#	63810
#	83458
#	95098
#	107745
#	120168
#	132770
#	143080
#	156965
#	171125
#
# Disc length: 2427 seconds
#
# Revision: 0
# Processed by: cddbd v1.4PL0 Copyright (c) Steve Scherf et al.
# Submitted via: audiograbber 1.81.02
#
DISCID=a609790e
DTITLE=Ray Charles - 28 great songs
DYEAR=1993
DGENRE=
TTITLE0=I'm moving on
TTITLE1=Heartbreaker
TTITLE2=Let's have a ball
TTITLE3=I'm wonderin' and wondering'
TTITLE4=Kiss me baby
TTITLE5=Talkin 'bout you
TTITLE6=If I give you my love
TTITLE7=Leave my woman alone
TTITLE8=I'm glad for your sake
TTITLE9=Rockin' chair blues
TTITLE10=Sittin' on the top of the world
TTITLE11=This love of mine
TTITLE12=Walkin' and talkin'
TTITLE13=A sentimental blues
EXTD=second disc
EXTT0=
EXTT1=
EXTT2=
EXTT3=
EXTT4=
EXTT5=
EXTT6=
EXTT7=
EXTT8=
EXTT9=
EXTT10=
EXTT11=
EXTT12=
EXTT13=
PLAYORDER=
